# xmcd
#
# Track frame offsets:
#	180
#	22015
#	38002
#	42690
#	61389
#	76621
#	90000
#
# Disc length: 1478 seconds
#
# Revision: 0
# Processed by: cddbd v1.5.2PL0 Copyright (c) Steve Scherf et al.
# Submitted via: dBpowerAMP V4.0
#
DISCID=4705c407
DTITLE=Pipilotti Rist - Pipi and Andes Weekend
DYEAR=1900
DGENRE=Avantgarde
TTITLE0=I am a victim of this song
TTITLE1=Kugu
TTITLE2=Pamela
TTITLE3=Ever is over all
TTITLE4=Why I am never be sad
TTITLE5=Swan
TTITLE6=I like tv
EXTD=
EXTT0=
EXTT1=
EXTT2=
EXTT3=
EXTT4=
EXTT5=
EXTT6=
PLAYORDER=
